<svg width="106" height="138" viewBox="0 0 106 138" fill="none" xmlns="http://www.w3.org/2000/svg">
<path d="M83.7515 74.3515L76.3329 61.3201C75.5479 59.9384 73.7894 59.4517 72.4078 60.2446L52.0676 71.8159C50.686 72.6009 50.1993 74.3594 50.9843 75.7489L58.4028 88.7804C59.1879 90.1621 60.9463 90.6488 62.3358 89.8637L82.676 78.2845C84.0576 77.4995 84.5443 75.7411 83.7515 74.3594V74.3515ZM69.668 72.177L63.7253 75.5605C62.7362 76.1257 61.4802 75.7803 60.9149 74.7912C60.7815 74.5635 60.703 74.3201 60.6637 74.0768C60.5381 73.2604 60.9228 72.4204 61.6843 71.9808L67.6348 68.5973C68.6239 68.0399 69.88 68.3775 70.4452 69.3666C70.5708 69.5943 70.6572 69.8376 70.6886 70.081C70.8142 70.8974 70.4295 71.7452 69.668 72.177Z" fill="#1E4593"/>
<path d="M18.4527 54.9692C18.4527 54.9692 19.6067 54.7965 20.588 52.4257C21.1532 51.0676 22.5035 50.1256 23.7046 49.5211C24.9057 48.9166 26.358 49.3798 27.0253 50.5338L55.2392 99.292C55.9379 100.501 57.4766 100.917 58.6934 100.242L88.6972 83.4265C89.9689 82.7122 90.385 81.0793 89.6078 79.8468C88.8856 78.6928 87.3783 78.316 86.2008 78.9833L60.8993 93.2708C59.6903 93.9538 58.1517 93.5377 57.4452 92.3366L29.2626 44.1672C29.2626 44.1672 27.669 41.4431 22.7625 44.2535C17.8561 47.064 14.1665 50.0863 15.1634 53.7367C15.1634 53.7367 15.6031 55.6914 18.4527 54.9692Z" fill="#1E4593"/>
<path d="M70.3118 56.2096L63.7254 44.6383C63.0267 43.4136 61.4645 42.9819 60.2398 43.6805L42.1841 53.9487C40.9516 54.6474 40.5277 56.2096 41.2264 57.4421L47.805 69.0056C48.5036 70.2381 50.0658 70.662 51.2905 69.9633L69.3462 59.6873C70.5708 58.9886 71.0026 57.4264 70.3039 56.2018L70.3118 56.2096ZM57.8062 54.2784L52.5308 57.2773C51.6516 57.7797 50.5369 57.4735 50.0344 56.5943C49.9167 56.3902 49.846 56.1782 49.8146 55.9584C49.7047 55.2362 50.0423 54.4825 50.7174 54.0979L55.9928 51.0991C56.8642 50.6045 57.9868 50.9107 58.4892 51.782C58.5991 51.9862 58.6776 52.1981 58.709 52.4179C58.8189 53.148 58.4814 53.8938 57.8062 54.2784Z" fill="#1E4593"/>
<path d="M58.4029 40.3205L52.6094 30.1387C51.9971 29.0554 50.6233 28.6786 49.5399 29.2987L33.6509 38.3344C32.5676 38.9467 32.1908 40.3205 32.8031 41.4039L38.5966 51.5779C39.209 52.6612 40.5828 53.038 41.6661 52.4257L57.5551 43.3822C58.6384 42.7698 59.0153 41.396 58.3951 40.3127L58.4029 40.3205ZM47.4047 38.6249L42.7651 41.2626C41.9958 41.7022 41.0067 41.4353 40.5671 40.6581C40.465 40.4776 40.4022 40.2891 40.3708 40.1007C40.2766 39.4649 40.5749 38.8054 41.1637 38.4679L45.8111 35.8223C46.5804 35.3827 47.5617 35.6496 48.0091 36.4268C48.1112 36.6074 48.174 36.7958 48.2054 36.9842C48.2996 37.62 48.0013 38.2795 47.4125 38.6249H47.4047Z" fill="#1E4593"/>
<path d="M51.1413 92.8234C46.9021 93.4593 43.9897 97.408 44.6177 101.647C45.2457 105.886 49.2023 108.799 53.4414 108.171C57.6806 107.543 60.5931 103.586 59.965 99.347C59.337 95.1079 55.3805 92.1954 51.1413 92.8234ZM52.6643 102.95C51.3062 103.154 50.0423 102.22 49.8381 100.862C49.634 99.504 50.5682 98.2402 51.9263 98.036C53.2844 97.8319 54.5483 98.7661 54.7524 100.124C54.9565 101.482 54.0224 102.746 52.6643 102.95Z" fill="#1E4593"/>
</svg>
