<svg width="120" height="138" viewBox="0 0 120 138" fill="none" xmlns="http://www.w3.org/2000/svg">
<path d="M61.0313 87.9512H56.2078C54.5333 87.9512 53.1774 86.5968 53.1774 84.9242V80.4911C53.1774 77.9822 53.6813 76.0136 54.6963 74.5779C55.7114 73.1421 57.9342 71.0921 61.3647 68.4426C66.603 64.4239 69.2259 60.1684 69.2259 55.6687C69.2259 52.2792 68.2034 49.5853 66.1511 47.5944C64.1061 45.6036 61.4388 44.6119 58.1565 44.6119C51.2955 44.6119 46.9759 48.8896 45.1976 57.4375C44.8642 59.0509 43.3157 60.1166 41.6931 59.828L35.4989 58.7179C33.8466 58.4218 32.7575 56.8455 33.0464 55.1951C34.18 48.7638 36.9511 43.6054 41.3522 39.72C46.4276 35.2425 52.5106 33 59.5939 33C66.6771 33 72.4712 35.0944 77.0797 39.2759C81.6883 43.4574 84 48.6676 84 54.8917C84 57.9852 83.3628 60.9307 82.0884 63.706C80.814 66.4888 79.3692 68.6424 77.7466 70.1744C76.1239 71.7063 72.6935 74.3854 67.4551 78.2191C65.9806 79.2848 65.0397 80.3283 64.6322 81.3422C64.358 82.0379 64.1654 83.2812 64.0616 85.0796C63.9653 86.6856 62.6465 87.9512 61.0387 87.9512H61.0313ZM64.647 98.4751V105.328C64.647 106.801 63.4467 108 61.9722 108H55.8448C54.3703 108 53.17 106.801 53.17 105.328V98.4751C53.17 97.0024 54.3703 95.8034 55.8448 95.8034H61.9722C63.4467 95.8034 64.647 97.0024 64.647 98.4751Z" fill="#1E4593"/>
</svg>
