<svg width="120" height="138" viewBox="0 0 120 138" fill="none" xmlns="http://www.w3.org/2000/svg">
<path d="M78.6639 97.4473L66.8068 76.456C70.9045 72.754 73.7011 67.59 74.3248 61.6682C75.6728 48.9058 66.4245 37.478 53.6621 36.13C44.9638 35.2112 36.8892 39.2351 32.2014 45.9214C31.9935 46.2232 31.7856 46.5116 31.5911 46.8201C31.4704 47.0079 31.3564 47.1957 31.2424 47.3902C31.1619 47.5243 31.0814 47.6584 31.0077 47.7925C30.9406 47.9066 30.8869 48.0071 30.8266 48.1212C29.4048 50.73 28.4659 53.654 28.1306 56.7859C26.8295 69.1057 35.3937 80.1781 47.4653 82.1498C47.7269 82.19 47.9952 82.2303 48.2634 82.2638C48.364 82.2772 48.4713 82.2906 48.5853 82.304C48.6591 82.3107 48.7262 82.3175 48.7999 82.3309C48.8267 82.3309 48.867 82.3376 48.9005 82.3376C49.2694 82.3711 49.6449 82.3979 50.0138 82.4181C53.4274 82.5991 56.7136 82.0425 59.7181 80.8622L71.4142 101.558C72.0781 102.739 73.5871 103.154 74.7607 102.491L77.7518 100.8C78.9321 100.13 79.3479 98.6276 78.684 97.4473H78.6639ZM47.8409 75.4366C38.9481 73.6728 33.1604 65.0282 34.9309 56.1354C36.6947 47.2426 45.3394 41.4549 54.2322 43.2254C63.125 44.9892 68.9127 53.6339 67.1421 62.5267C65.3783 71.4194 56.7337 77.2071 47.8409 75.4366Z" fill="#1E4593"/>
</svg>
