<svg width="120" height="140" viewBox="0 0 120 140" fill="none" xmlns="http://www.w3.org/2000/svg">
<path d="M82.5657 89.2577H52.7049C52.5461 89.2577 52.4017 89.2071 52.279 89.1277C52.0769 88.9906 51.947 88.7524 51.947 88.4926V43.9937C51.947 43.6617 52.2141 43.3946 52.5461 43.3946H64.4919C64.8239 43.3946 65.0982 43.1276 65.0982 42.7883V39.7207C65.0982 39.3886 64.8239 39.1216 64.4919 39.1216H38.4133C38.0813 39.1216 37.807 39.3886 37.807 39.7207V88.8607C37.807 89.0123 37.7637 89.1494 37.6843 89.2649C37.5905 89.4237 37.4317 89.5464 37.244 89.5969C35.7571 90.0156 34.429 90.8167 33.3607 91.8778C31.7583 93.4874 30.755 95.7033 30.7406 98.1502C30.7045 103.116 34.8981 107.173 39.8569 107.173H81.0788C85.8426 107.173 89.7404 103.275 89.7404 98.5111V97.7893C89.7404 93.5307 86.6294 89.965 82.5657 89.2577ZM42.4193 89.1277C42.21 88.9906 42.08 88.7524 42.08 88.4926V43.9937C42.08 43.6617 42.3543 43.3946 42.6863 43.3946H47.0677C47.3997 43.3946 47.674 43.6617 47.674 43.9937V88.4926C47.674 88.7524 47.5368 88.9906 47.3347 89.1277C47.212 89.2071 47.0677 89.2577 46.9089 89.2577H42.8451C42.6863 89.2577 42.5348 89.2071 42.4193 89.1277ZM51.449 98.6338C51.449 99.897 50.424 100.929 49.1609 100.929H47.3275C46.0716 100.929 45.0394 99.897 45.0394 98.6338V98.4462C45.0394 97.1902 46.0716 96.1581 47.3275 96.1581H49.1609C50.424 96.1581 51.449 97.1902 51.449 98.4462V98.6338ZM75.6148 98.6338C75.6148 99.897 74.5826 100.929 73.3267 100.929H71.4933C70.2374 100.929 69.2052 99.897 69.2052 98.6338V98.4462C69.2052 97.1902 70.2374 96.1581 71.4933 96.1581H73.3267C74.5826 96.1581 75.6148 97.1902 75.6148 98.4462V98.6338Z" fill="#1E4593"/>
<path d="M76.1057 75.1177H62.7885C61.7058 75.1177 60.818 76.0055 60.818 77.0882V85.8003C60.818 86.883 61.7058 87.7708 62.7885 87.7708H76.1057C77.1884 87.7708 78.0762 86.883 78.0762 85.8003V77.0882C78.0762 76.0055 77.1884 75.1177 76.1057 75.1177ZM72.2946 80.1775C72.0708 80.4012 71.7605 80.5384 71.4212 80.5384H67.473C66.7945 80.5384 66.2387 79.9826 66.2387 79.3041C66.2387 78.9649 66.3758 78.6545 66.5996 78.4307C66.8234 78.207 67.1337 78.0698 67.473 78.0698H71.4212C72.0997 78.0698 72.6555 78.6256 72.6555 79.3041C72.6555 79.6433 72.5183 79.9537 72.2946 80.1775Z" fill="#1E4593"/>
<path d="M70.1075 48.245C73.9663 48.245 77.0945 45.1168 77.0945 41.258C77.0945 37.3992 73.9663 34.271 70.1075 34.271C66.2487 34.271 63.1205 37.3992 63.1205 41.258C63.1205 45.1168 66.2487 48.245 70.1075 48.245Z" fill="#1E4593"/>
<path d="M72.3235 47.8335H68.2164V54.7339H72.3235V47.8335Z" fill="#1E4593"/>
<path d="M69.0392 53.9111H71.3345C72.8792 53.9111 74.1279 55.1671 74.1279 56.7045V60.8115H66.2386V56.7045C66.2386 55.1598 67.4946 53.9111 69.032 53.9111H69.0392Z" fill="#1E4593"/>
<path d="M81.1221 65.5608C81.4902 65.8134 81.5913 66.3187 81.3386 66.6868L81.1654 66.9466L80.256 68.282L77.6575 72.1003C77.4265 72.4395 76.9646 72.5261 76.6253 72.2952L75.5859 71.5878C75.2467 71.3568 75.1601 70.8949 75.391 70.5556L77.6214 67.2787C77.8235 66.9827 77.7441 66.5785 77.4482 66.3764L70.3818 61.562C70.2807 61.4898 70.1436 61.4898 70.0425 61.562L62.7307 66.5352C62.4348 66.7373 62.3554 67.1415 62.5575 67.4375L64.7878 70.7144C65.0188 71.0537 64.9322 71.5156 64.5929 71.7466L63.5535 72.454C63.2143 72.6849 62.7524 72.5983 62.5214 72.2591L59.9229 68.4408L59.0134 67.1054L58.8402 66.8456C58.5876 66.4775 58.6814 65.9722 59.0567 65.7196L69.0176 58.9347C69.0176 58.9347 69.0753 58.8841 69.097 58.8553L69.6167 58.0902C69.7105 57.953 69.8982 57.9169 70.0353 58.0108C70.1363 58.083 70.2735 58.083 70.3745 58.0108H70.3818L70.656 58.4078C70.6777 58.4366 70.7066 58.4655 70.7354 58.4872L81.1149 65.5536L81.1221 65.5608Z" fill="#1E4593"/>
</svg>
