<svg width="120" height="164" viewBox="0 0 120 164" fill="none" xmlns="http://www.w3.org/2000/svg">
<path d="M65.8103 79.7776C64.9113 78.3003 63.2238 78.3071 60.7271 79.7982C58.0783 81.3855 57.1792 82.8835 58.0437 84.3059C58.9566 85.8107 60.7271 85.7763 63.369 84.2028C65.8726 82.7048 66.6887 81.2275 65.8103 79.7776ZM65.8103 79.7776C64.9113 78.3003 63.2238 78.3071 60.7271 79.7982C58.0783 81.3855 57.1792 82.8835 58.0437 84.3059C58.9566 85.8107 60.7271 85.7763 63.369 84.2028C65.8726 82.7048 66.6887 81.2275 65.8103 79.7776ZM90.5418 98.7907L63.0163 54.8208C62.7258 54.3535 62.2555 54.0306 61.7092 53.9138L47.905 51.0415C47.4001 50.9385 46.8676 51.0278 46.425 51.3027L32.3164 59.9537C31.8531 60.2354 31.528 60.6821 31.4035 61.2043L28.0562 75.2631C27.9317 75.7785 28.0147 76.3282 28.2983 76.7817L55.139 120.298C56.0243 121.734 57.9054 122.181 59.3509 121.308L89.532 102.989C90.9844 102.11 91.4339 100.227 90.5418 98.7907ZM55.1598 80.8633C55.8237 79.1798 57.0478 77.8055 58.8252 76.7405C60.575 75.696 62.3316 75.2975 64.0883 75.538C65.8449 75.7854 67.2004 76.7061 68.1687 78.3003C69.2476 80.08 69.4205 81.7703 68.7012 83.3645C67.975 84.9655 66.8201 86.2436 65.2225 87.1987C63.2445 88.3806 61.3703 88.7997 59.5929 88.463C57.8155 88.1263 56.4807 87.2193 55.5886 85.7488C54.6411 84.1753 54.4959 82.5468 55.1598 80.8633ZM39.3154 64.1933C40.2698 61.2318 43.3197 59.3628 46.4111 59.8369C50.3532 60.4416 52.8015 64.3789 51.5773 68.1513C50.616 71.1128 47.573 72.9818 44.4747 72.5008C40.5326 71.8962 38.0912 67.9657 39.3154 64.1933ZM66.4535 102.391C66.0109 104.082 64.6969 105.58 62.5253 106.878C60.6995 107.971 58.9221 108.342 57.2 107.998C55.4848 107.648 54.157 106.707 53.2233 105.167C52.3312 103.69 52.1652 102.13 52.7254 100.474C53.2925 98.8251 54.4474 97.4714 56.1972 96.4269C58.2097 95.2245 60.1185 94.819 61.9305 95.197C63.7425 95.5818 65.0703 96.475 65.9141 97.8699C66.7163 99.1892 66.8961 100.701 66.4535 102.391ZM46.0307 92.8401L44.5369 90.3664L75.4512 90.813L76.9174 93.2386L46.0307 92.8401ZM63.369 84.2028C65.8726 82.7048 66.6887 81.2275 65.8103 79.7776C64.9113 78.3003 63.2238 78.3071 60.7271 79.7982C58.0783 81.3855 57.1792 82.8835 58.0437 84.3059C58.9566 85.8107 60.7271 85.7763 63.369 84.2028ZM58.2028 99.3748C55.6439 100.907 54.8071 102.405 55.6923 103.869C56.1626 104.645 56.8819 104.982 57.8501 104.892C58.8183 104.796 59.7866 104.453 60.7686 103.869C62.1864 103.023 63.0924 102.247 63.5004 101.532C63.9015 100.825 63.8877 100.117 63.4589 99.4091C62.5184 97.8562 60.7686 97.8493 58.2028 99.3748Z" fill="#1E4593"/>
</svg>
