<svg width="120" height="162" viewBox="0 0 120 162" fill="none" xmlns="http://www.w3.org/2000/svg">
<path d="M49.3573 50.0259C49.3573 50.0259 51.3439 49.6041 53.2755 52.1653C55.2071 54.7264 58.3489 60.784 56.3134 66.9027C56.3134 66.9027 56.2095 67.4283 54.4308 68.1557C52.652 68.8831 49.1006 70.3563 48.9967 72.2328C48.8928 74.1094 49.5713 76.151 51.5089 80.0691C53.4466 83.9873 61.6558 95.9495 65.3661 96.4141C65.3661 96.4141 66.7781 96.1513 69.1253 93.9018C71.4725 91.6524 73.9298 90.2404 75.9164 91.1817C77.903 92.1231 85.2747 97.3921 86.8946 100.161C86.8946 100.161 87.6281 101.94 85.2258 105.803C82.8236 109.666 74.9384 113.804 67.151 110.62C59.3636 107.435 40.9097 96.4202 36.3437 70.2462C36.3437 70.2462 32.67 50.4966 49.3451 50.0137L49.3573 50.0259Z" fill="#1E4593"/>
</svg>
