<svg width="5" height="18" viewBox="0 0 5 18" fill="none" xmlns="http://www.w3.org/2000/svg">
<path d="M1.14498 11.6918L0.420099 6.67927C0.140033 4.76304 0 2.84158 0 0.925349C0 0.549412 0.62603 0.246574 1.39209 0.246574H3.60791C4.37397 0.246574 5 0.549412 5 0.925349V1.08199C5 2.89902 4.87644 4.71605 4.62932 6.52785L3.92092 11.6918C3.8715 12.052 3.26194 12.3288 2.52883 12.3288C1.80395 12.3235 1.1944 12.0468 1.14498 11.6918Z" fill="#9D9FA5"/>
<path d="M1 16.4498V15.2556C1 14.7499 1.40092 14.3425 1.89862 14.3425H3.10138C3.59908 14.3425 4 14.7499 4 15.2556V16.4498C4 16.9555 3.59908 17.3629 3.10138 17.3629H1.89862C1.40783 17.3699 1 16.9555 1 16.4498Z" fill="#9D9FA5"/>
</svg>
