<svg width="20" height="21" viewBox="0 0 20 21" fill="none" xmlns="http://www.w3.org/2000/svg">
<path d="M8.33334 18H11.6667C11.6667 18.4421 11.4911 18.866 11.1785 19.1786C10.866 19.4911 10.442 19.6667 10 19.6667C9.55798 19.6667 9.13405 19.4911 8.82149 19.1786C8.50893 18.866 8.33334 18.4421 8.33334 18ZM2.56334 15.8192C2.50025 15.6669 2.48376 15.4993 2.51595 15.3376C2.54814 15.1759 2.62756 15.0274 2.74417 14.9109L4.16667 13.4884V8.83337C4.16935 7.43212 4.67591 6.07858 5.59387 5.01987C6.51183 3.96116 7.77994 3.26791 9.16667 3.06671V2.16671C9.16667 1.94569 9.25447 1.73373 9.41075 1.57745C9.56703 1.42117 9.77899 1.33337 10 1.33337C10.221 1.33337 10.433 1.42117 10.5893 1.57745C10.7455 1.73373 10.8333 1.94569 10.8333 2.16671V3.06671C12.2201 3.26791 13.4882 3.96116 14.4061 5.01987C15.3241 6.07858 15.8307 7.43212 15.8333 8.83337V13.4884L17.2558 14.9109C17.3723 15.0274 17.4517 15.1759 17.4838 15.3375C17.516 15.4991 17.4995 15.6667 17.4364 15.8189C17.3733 15.9712 17.2666 16.1013 17.1296 16.1929C16.9925 16.2844 16.8315 16.3333 16.6667 16.3334H3.33334C3.16853 16.3334 3.00742 16.2846 2.87036 16.1931C2.7333 16.1015 2.62646 15.9714 2.56334 15.8192ZM5.34501 14.6667H14.655L14.4108 14.4225C14.2545 14.2663 14.1667 14.0544 14.1667 13.8334V8.83337C14.1667 7.7283 13.7277 6.6685 12.9463 5.8871C12.1649 5.10569 11.1051 4.66671 10 4.66671C8.89494 4.66671 7.83513 5.10569 7.05373 5.8871C6.27233 6.6685 5.83334 7.7283 5.83334 8.83337V13.8334C5.83329 14.0544 5.74546 14.2663 5.58917 14.4225L5.34501 14.6667Z" fill="#1E4593"/>
</svg>
