<svg width="48" height="67" viewBox="0 0 48 67" fill="none" xmlns="http://www.w3.org/2000/svg">
<path d="M47.5804 15.9358V45.7877L42.1807 45.774L42.1239 45.6226V45.774L36.5201 42.0255V58.6696L23.6809 67L11.0349 58.5769V25.0186L5.45659 21.3035V51.0801L6.94826 52.0722L6.88705 55.8141L0 51.2271V15.35H5.45659L11.0349 19.081V8.41583L23.6853 0L36.5769 8.41583L36.5456 24.8383H36.4873L36.5201 24.8723L33.869 27.2361L30.9717 24.6283V8.55704L23.6897 3.77738L16.5082 8.55632V8.55704V58.4401L23.6809 63.219L30.9695 58.5118V38.3119L20.9898 31.6363V25.7407L42.1239 39.8783V16.056L40.528 14.9937V11.238L47.5804 15.9358Z" fill="#1F4492"/>
</svg>
