<svg width="50" height="50" viewBox="0 0 50 50" fill="none" xmlns="http://www.w3.org/2000/svg">
<path d="M8.33325 35.0227V15.8106C8.33325 15.2583 8.78097 14.8106 9.33325 14.8106H30.895C31.0714 14.8106 31.2446 14.7639 31.3972 14.6754L37.3186 11.2369C37.7245 11.0012 38.2397 11.0795 38.5573 11.4252L41.4031 14.5237C41.5725 14.7082 41.6666 14.9496 41.6666 15.2001V18.1726C41.6666 18.5499 41.4542 18.8951 41.1173 19.0652L31.7136 23.8136C31.3767 23.9836 31.1643 24.3289 31.1643 24.7062V26.1271C31.1643 26.5045 31.3767 26.8497 31.7136 27.0198L41.1173 31.7681C41.4542 31.9382 41.6666 32.2834 41.6666 32.6608V35.6332C41.6666 35.8837 41.5725 36.1251 41.4031 36.3096L38.5573 39.4081C38.2397 39.7538 37.7245 39.8321 37.3186 39.5964L31.3972 36.1579C31.2446 36.0694 31.0714 36.0227 30.895 36.0227H9.33325C8.78097 36.0227 8.33325 35.575 8.33325 35.0227Z" fill="#788FBE" stroke="#222734"/>
</svg>
