<svg width="50" height="50" viewBox="0 0 50 50" fill="none" xmlns="http://www.w3.org/2000/svg">
<path d="M36 11V14.5C36 15.0523 35.5523 15.5 35 15.5H31C30.4477 15.5 30 15.9477 30 16.5V21.9968C30 22.3133 30.1499 22.6112 30.4042 22.7999L45.0958 33.7001C45.3501 33.8888 45.5 34.1867 45.5 34.5032V39.4511C45.5 40.1774 44.7503 40.6614 44.0884 40.3625L30.1963 34.0886C30.0669 34.0302 29.9266 34 29.7847 34H5C4.44772 34 4 33.5523 4 33V11C4 10.4477 4.44772 10 5 10H35C35.5523 10 36 10.4477 36 11Z" fill="#788FBE" stroke="#222734"/>
</svg>
