<svg width="64" height="64" viewBox="0 0 64 64" fill="none" xmlns="http://www.w3.org/2000/svg">
<path d="M6.11959e-07 2C6.11959e-07 0.895433 0.895431 2.7937e-06 2 2.7937e-06H6C7.10457 2.7937e-06 8 0.895433 8 2V62C8 63.1046 7.10457 64 6 64H2C0.895431 64 6.11959e-07 63.1046 6.11959e-07 62V2Z" fill="#D2DAE9"/>
<path d="M2 8C0.895431 8 4.82823e-08 7.10457 0 6L6.11959e-07 2C6.11959e-07 0.895433 0.895431 2.7937e-06 2 2.7937e-06L62 0C63.1046 -4.82822e-08 64 0.89543 64 2V6C64 7.10457 63.1046 8 62 8L2 8Z" fill="#D2DAE9"/>
</svg>
