<svg width="108" height="67" viewBox="0 0 108 67" fill="none" xmlns="http://www.w3.org/2000/svg">
<path d="M6.88485 55.967L6.90904 55.984H6.88414L6.88485 55.967Z" fill="#1F4492"/>
<path d="M47.5804 15.9358V45.7877L42.1807 45.774L42.1239 45.6226V45.774L36.5201 42.0255V58.6696L23.6809 67L11.0349 58.5769V25.0186L5.45659 21.3035V51.0801L6.94826 52.0722L6.88705 55.8141L0 51.2271V15.35H5.45659L11.0349 19.081V8.41583L23.6853 0L36.5769 8.41583L36.5456 24.8383H36.4873L36.5201 24.8723L33.869 27.2361L30.9717 24.6283V8.55704L23.6897 3.77738L16.5082 8.55632V8.55704V58.4401L23.6809 63.219L30.9695 58.5118V38.3119L20.9898 31.6363V25.7407L42.1239 39.8783V16.056L40.528 14.9937V11.238L47.5804 15.9358Z" fill="#1F4492"/>
<path d="M50.4872 32.4497H58.7034C60.0726 32.4497 61.0673 32.7575 61.6867 33.373C62.3061 33.9886 62.6158 34.9771 62.6158 36.3379V38.2816C62.6158 39.6424 62.3061 40.6309 61.6867 41.2464C61.0673 41.862 60.0726 42.1698 58.7034 42.1698H54.0083V46.0587H50.4872V32.4497ZM59.094 36.3379C59.094 35.5601 58.7027 35.1712 57.92 35.1712H54.0076V39.4483H57.92C58.7027 39.4483 59.094 39.0594 59.094 38.2816V36.3379Z" fill="#1F4492"/>
<path d="M64.3757 32.4497H72.5919C73.9612 32.4497 74.9558 32.7575 75.5752 33.373C76.1946 33.9886 76.5044 34.9771 76.5044 36.3379V38.0875C76.5044 39.1637 76.3251 39.9994 75.9666 40.5954C75.608 41.1914 75.0375 41.5868 74.2548 41.7816L76.7004 46.0587H72.8856L70.636 41.9764H67.8975V46.0587H64.3764V32.4497H64.3757ZM72.9832 36.3379C72.9832 35.5601 72.5919 35.1712 71.8093 35.1712H67.8968V39.2535H71.8093C72.5919 39.2535 72.9832 38.8646 72.9832 38.0868V36.3379Z" fill="#1F4492"/>
<path d="M90.7842 42.3643C90.7842 43.7251 90.4745 44.7136 89.8551 45.3292C89.2357 45.9447 88.241 46.2525 86.8718 46.2525H81.9814C80.6122 46.2525 79.6175 45.9447 78.9981 45.3292C78.3787 44.7136 78.069 43.7251 78.069 42.3643V36.1435C78.069 34.7828 78.3787 33.7943 78.9981 33.1787C79.6175 32.5631 80.6122 32.2553 81.9814 32.2553H86.8718C88.241 32.2553 89.2357 32.5631 89.8551 33.1787C90.4745 33.7943 90.7842 34.7828 90.7842 36.1435V42.3643ZM87.2631 36.1435C87.2631 35.3657 86.8718 34.9769 86.0892 34.9769H82.7633C81.9807 34.9769 81.5894 35.3657 81.5894 36.1435V42.3643C81.5894 43.1421 81.9807 43.531 82.7633 43.531H86.0892C86.8718 43.531 87.2631 43.1421 87.2631 42.3643V36.1435Z" fill="#1F4492"/>
<path d="M104.477 38.4764L101.739 43.3365H99.0004L96.262 38.4764V46.0587H92.7408V32.4497H96.458L100.37 39.6431L104.283 32.4497H108V46.0587H104.479V38.4764H104.477Z" fill="#1F4492"/>
</svg>
