<svg width="34" height="22" viewBox="0 0 34 22" fill="none" xmlns="http://www.w3.org/2000/svg">
<g clip-path="url(#clip0_407_10864)">
<path d="M12.3916 2.72968H21.5756V19.1196H12.3916V2.72968Z" fill="#FF5F00"/>
<path d="M12.9743 10.9247C12.9743 7.59462 14.5487 4.6409 16.9685 2.72967C15.1902 1.33974 12.9452 0.5 10.4962 0.5C4.69399 0.5 0 5.16208 0 10.9247C0 16.6871 4.69399 21.3494 10.496 21.3494C12.9451 21.3494 15.19 20.5096 16.9685 19.1196C14.5487 17.2373 12.9743 14.2547 12.9743 10.9247Z" fill="#EB001B"/>
<path d="M33.9666 10.9247C33.9666 16.6871 29.2726 21.3494 23.4705 21.3494C21.0215 21.3494 18.7765 20.5096 16.998 19.1196C19.4471 17.2085 20.9924 14.2547 20.9924 10.9247C20.9924 7.59462 19.4179 4.6409 16.998 2.72967C18.7764 1.33974 21.0215 0.5 23.4705 0.5C29.2726 0.5 33.9667 5.1911 33.9667 10.9247H33.9666Z" fill="#F79E1B"/>
</g>
<defs>
<clipPath id="clip0_407_10864">
<rect width="34" height="21" fill="white" transform="translate(0 0.5)"/>
</clipPath>
</defs>
</svg>
