<svg width="24" height="24" viewBox="0 0 24 24" fill="none" xmlns="http://www.w3.org/2000/svg">
<path d="M15.5 11.976C17.1569 11.976 18.5 10.6839 18.5 9.09018C18.5 7.49641 17.1569 6.20441 15.5 6.20441C13.8431 6.20441 12.5 7.49641 12.5 9.09018C12.5 10.6839 13.8431 11.976 15.5 11.976Z" fill="white"/>
<path fill-rule="evenodd" clip-rule="evenodd" d="M15.5 6.63727C14.0917 6.63727 12.95 7.73548 12.95 9.09018C12.95 10.4449 14.0917 11.5431 15.5 11.5431C16.9083 11.5431 18.05 10.4449 18.05 9.09018C18.05 7.73548 16.9083 6.63727 15.5 6.63727ZM12.05 9.09018C12.05 7.25735 13.5946 5.77154 15.5 5.77154C17.4054 5.77154 18.95 7.25735 18.95 9.09018C18.95 10.923 17.4054 12.4088 15.5 12.4088C13.5946 12.4088 12.05 10.923 12.05 9.09018Z" fill="#1E4593"/>
<path d="M16.1341 9.7243C16.128 9.68914 16.0974 9.67742 16.0668 9.68328L15.2166 9.87668L15.1982 9.81221C15.186 9.76533 15.2227 9.71844 15.2716 9.71258C15.3267 9.70672 15.3817 9.695 15.4429 9.67742C15.761 9.60123 16.0179 9.44299 16.1463 9.23201C16.2442 9.07963 16.2687 8.89209 16.2136 8.66939C16.1647 8.45255 16.0301 8.29431 15.865 8.21226C15.6815 8.11849 15.4246 8.10091 15.1065 8.17124C14.8802 8.22398 14.7028 8.28259 14.556 8.33533C14.5193 8.34705 14.4948 8.38808 14.5009 8.4291L14.7823 9.54848L14.5988 9.59537C14.5743 9.60123 14.556 9.62467 14.5621 9.64812L14.5988 9.80635C14.6049 9.82979 14.6294 9.84738 14.6539 9.84152L14.8374 9.79463L14.8741 9.94115L14.6967 9.98217C14.6661 9.98803 14.6477 10.0173 14.6539 10.0466L14.6844 10.1814C14.6906 10.2107 14.7211 10.2283 14.7517 10.2225L14.9291 10.1814L15.0514 10.6679C15.0576 10.7148 15.1065 10.7441 15.1554 10.7265L15.3145 10.6913C15.3573 10.6796 15.3879 10.6327 15.3756 10.5917L15.2472 10.0994L16.0974 9.90598C16.128 9.90012 16.1463 9.87082 16.1402 9.84152L16.1341 9.7243ZM15.1921 9.46057C15.1493 9.46643 15.1126 9.43713 15.1065 9.39611L14.9046 8.58734C14.8924 8.55218 14.9108 8.50529 14.9597 8.49357C15.0147 8.47013 15.0943 8.44668 15.1921 8.4291C15.553 8.34705 15.8283 8.44668 15.9078 8.76902C15.9934 9.07963 15.8222 9.31406 15.4674 9.41369L15.2839 9.46057C15.2411 9.45471 15.2166 9.46057 15.1921 9.46057Z" fill="#1E4593"/>
<path d="M20.197 23.519H5.80299C5.08114 23.519 4.5 23.0094 4.5 22.3764V12.1567C4.5 11.5237 5.08114 11.014 5.80299 11.014H20.197C20.9189 11.014 21.5 11.5237 21.5 12.1567V22.3764C21.5 23.004 20.9189 23.519 20.197 23.519Z" fill="white"/>
<path fill-rule="evenodd" clip-rule="evenodd" d="M5.80299 11.495C5.31277 11.495 5 11.8302 5 12.1567V22.3764C5 22.7029 5.31277 23.0381 5.80299 23.0381H20.197C20.6856 23.0381 21 22.6989 21 22.3764V12.1567C21 11.8302 20.6872 11.495 20.197 11.495H5.80299ZM4 12.1567C4 11.2172 4.84952 10.5331 5.80299 10.5331H20.197C21.1505 10.5331 22 11.2172 22 12.1567V22.3764C22 23.3092 21.1521 24 20.197 24H5.80299C4.84952 24 4 23.3159 4 22.3764V12.1567Z" fill="#1E4593"/>
<path d="M5.51018 11.8091L5.77766 13.3327C5.83238 13.6607 6.12417 13.8998 6.4646 13.8998H19.6197C19.9723 13.8998 20.2702 13.644 20.3128 13.2993L20.4951 11.7758C20.5438 11.3699 20.2216 11.014 19.8021 11.014H6.19712C5.76551 11.014 5.43723 11.3921 5.51018 11.8091Z" fill="white"/>
<path fill-rule="evenodd" clip-rule="evenodd" d="M5.01712 11.889C4.8942 11.1863 5.44812 10.5331 6.19712 10.5331H19.8021C20.5303 10.5331 21.0736 11.1489 20.9918 11.8309L20.8095 13.3543L20.8093 13.356C20.7374 13.9379 20.2306 14.3808 19.6197 14.3808H6.4646C5.87735 14.3808 5.37858 13.9693 5.28435 13.411L5.01712 11.889ZM6.00325 11.7293L6.27137 13.2565C6.2875 13.3532 6.37176 13.4188 6.4646 13.4188H19.6197C19.7138 13.4188 19.8026 13.3504 19.8162 13.2432L19.9984 11.7208C20.014 11.5909 19.9129 11.495 19.8021 11.495H6.19712C6.08291 11.495 5.98033 11.598 6.00325 11.7293Z" fill="#1E4593"/>
<path d="M10.5 6.20441C12.1569 6.20441 13.5 4.91241 13.5 3.31864C13.5 1.72487 12.1569 0.432866 10.5 0.432866C8.84315 0.432866 7.5 1.72487 7.5 3.31864C7.5 4.91241 8.84315 6.20441 10.5 6.20441Z" fill="white"/>
<path fill-rule="evenodd" clip-rule="evenodd" d="M10.5 0.865731C9.09167 0.865731 7.95 1.96393 7.95 3.31864C7.95 4.67334 9.09167 5.77154 10.5 5.77154C11.9083 5.77154 13.05 4.67334 13.05 3.31864C13.05 1.96393 11.9083 0.865731 10.5 0.865731ZM7.05 3.31864C7.05 1.4858 8.59462 0 10.5 0C12.4054 0 13.95 1.4858 13.95 3.31864C13.95 5.15147 12.4054 6.63727 10.5 6.63727C8.59462 6.63727 7.05 5.15147 7.05 3.31864Z" fill="#1E4593"/>
<path d="M11.1318 3.9505C11.1257 3.91538 11.0951 3.90368 11.0646 3.90953L10.2156 4.10266L10.1973 4.03828C10.185 3.99146 10.2217 3.94464 10.2706 3.93879C10.3255 3.93294 10.3805 3.92124 10.4416 3.90368C10.7592 3.8276 11.0157 3.66959 11.144 3.4589C11.2417 3.30674 11.2662 3.11947 11.2112 2.89708C11.1623 2.68054 11.028 2.52253 10.863 2.4406C10.6798 2.34696 10.4233 2.3294 10.1056 2.39963C9.87964 2.4523 9.7025 2.51083 9.55591 2.5635C9.51926 2.5752 9.49483 2.61617 9.50094 2.65713L9.79412 3.78663L9.61088 3.83345C9.58034 3.8393 9.56812 3.86271 9.57423 3.88612L9.61088 4.04413C9.61699 4.06754 9.64753 4.07925 9.67196 4.0734L9.8552 4.02658L9.89185 4.17874L9.71472 4.2197C9.68418 4.22556 9.66585 4.25482 9.67196 4.28408L9.7025 4.41868C9.70861 4.44794 9.73915 4.4655 9.76969 4.45965L9.94683 4.41868L10.069 4.90443C10.0751 4.95124 10.124 4.98051 10.1728 4.96295L10.3316 4.92783C10.3744 4.91613 10.4049 4.86931 10.3927 4.82835L10.2706 4.3426L11.1196 4.14948C11.1501 4.14362 11.1684 4.11436 11.1623 4.0851L11.1318 3.9505ZM10.185 3.68714C10.1423 3.69299 10.1056 3.66373 10.0995 3.62277L9.89185 2.81515C9.88574 2.78003 9.90407 2.73321 9.94683 2.72151C10.0018 2.6981 10.0812 2.67469 10.1789 2.65713C10.5393 2.5752 10.8142 2.67469 10.8936 2.99657C10.9791 3.30674 10.8081 3.54083 10.4538 3.64032L10.2706 3.68714C10.24 3.68129 10.2095 3.68714 10.185 3.68714Z" fill="#1E4593"/>
</svg>
