<svg width="24" height="24" viewBox="0 0 24 24" fill="none" xmlns="http://www.w3.org/2000/svg">
<path fill-rule="evenodd" clip-rule="evenodd" d="M12.2713 7.44244C11.2329 7.44244 10.3975 8.27708 10.3975 9.29897C10.3975 10.3209 11.2329 11.1555 12.2713 11.1555C13.3096 11.1555 14.1451 10.3209 14.1451 9.29897C14.1451 8.27708 13.3096 7.44244 12.2713 7.44244ZM9.39746 9.29897C9.39746 7.71792 10.6876 6.44244 12.2713 6.44244C13.855 6.44244 15.1451 7.71792 15.1451 9.29897C15.1451 10.88 13.855 12.1555 12.2713 12.1555C10.6876 12.1555 9.39746 10.88 9.39746 9.29897Z" fill="#1E4593"/>
<path d="M17.4533 9.66115C17.4348 9.8262 17.4071 9.98666 17.3748 10.1471H17.3702C17.3702 10.1471 17.3517 10.2434 17.2824 10.4405C17.2408 10.5597 17.1808 10.7202 17.0931 10.9219C16.9545 11.2429 16.7513 11.6692 16.465 12.2102C16.4557 12.224 16.4511 12.2332 16.4419 12.2469C15.8415 13.3702 14.8532 14.9748 13.2552 17.1617C13.2552 17.1617 13.2091 17.2305 13.1075 17.3222C12.6502 17.7394 11.9252 17.7348 11.4541 17.3313C11.3433 17.235 11.2925 17.1617 11.2925 17.1617C9.65758 14.9335 8.66927 13.306 8.06888 12.1827C7.47774 11.0778 7.2653 10.4589 7.20064 10.2388C7.19141 10.2067 7.18679 10.1838 7.18217 10.1701C7.17755 10.1563 7.17755 10.1471 7.17755 10.1471C7.11289 9.8262 7.08057 9.4961 7.08057 9.15684C7.08057 5.95214 10.0317 3.42598 13.3892 4.11369C15.9523 4.63634 17.7165 7.07539 17.4533 9.66115Z" stroke="#1E4593" stroke-miterlimit="10"/>
<path fill-rule="evenodd" clip-rule="evenodd" d="M8.41562 15.4258C8.47041 15.6964 8.29542 15.9602 8.02477 16.015C6.87555 16.2477 5.95171 16.5672 5.32896 16.9257C4.67396 17.3027 4.5 17.6309 4.5 17.8311C4.5 17.9821 4.59337 18.209 4.95566 18.4898C5.31127 18.7653 5.85712 19.0353 6.57639 19.2712C8.0095 19.7412 10.0212 20.0406 12.2668 20.0406C14.5124 20.0406 16.5252 19.7412 17.9596 19.2712C18.6795 19.0353 19.2259 18.7653 19.582 18.4896C19.9448 18.2087 20.0382 17.9818 20.0382 17.8311C20.0382 17.6316 19.8665 17.3058 19.2201 16.9313C18.6049 16.5748 17.6917 16.2566 16.554 16.024C16.2835 15.9687 16.109 15.7045 16.1643 15.434C16.2196 15.1634 16.4838 14.989 16.7543 15.0443C17.9489 15.2885 18.9776 15.635 19.7214 16.066C20.434 16.4789 21.0382 17.0632 21.0382 17.8311C21.0382 18.4276 20.6685 18.9131 20.1942 19.2803C19.713 19.6528 19.048 19.9668 18.271 20.2215C16.7115 20.7325 14.5887 21.0406 12.2668 21.0406C9.94487 21.0406 7.82315 20.7325 6.26475 20.2214C5.48827 19.9668 4.82384 19.6527 4.34309 19.2802C3.86904 18.9128 3.5 18.4273 3.5 17.8311C3.5 17.0593 4.11115 16.4728 4.8301 16.059C5.58129 15.6266 6.62024 15.2791 7.82636 15.0349C8.09701 14.9801 8.36083 15.1551 8.41562 15.4258Z" fill="#1E4593"/>
</svg>
