<svg width="24" height="24" viewBox="0 0 24 24" fill="none" xmlns="http://www.w3.org/2000/svg">
<path fill-rule="evenodd" clip-rule="evenodd" d="M3.07982 6.50771C2.79592 6.50771 2.56393 6.73797 2.56393 7.0236V17.6977C2.56393 17.9816 2.79419 18.2136 3.07982 18.2136H12.5165C12.7989 18.2136 13.0324 17.98 13.0324 17.6977V7.0236C13.0324 6.7397 12.8022 6.50771 12.5165 6.50771H3.07982ZM1.56393 7.0236C1.56393 6.1826 2.24673 5.50771 3.07982 5.50771H12.5165C13.3575 5.50771 14.0324 6.1905 14.0324 7.0236V17.6977C14.0324 18.5323 13.3512 19.2136 12.5165 19.2136H3.07982C2.23883 19.2136 1.56393 18.5308 1.56393 17.6977V7.0236Z" fill="#1E4593"/>
<path fill-rule="evenodd" clip-rule="evenodd" d="M14.3508 9.56505C14.1744 9.56505 14.0323 9.7071 14.0323 9.88354V17.8951C14.0323 18.0716 14.1744 18.2136 14.3508 18.2136H22.5309C22.7057 18.2136 22.8512 18.0725 22.8542 17.8918V14.7078C22.8542 14.3181 22.6969 13.9454 22.4208 13.6726C22.4207 13.6725 22.421 13.6728 22.4208 13.6726L18.6626 9.98178C18.6624 9.98154 18.6621 9.98131 18.6619 9.98107C18.3881 9.71488 18.022 9.56505 17.6441 9.56505H14.3508ZM13.0323 9.88354C13.0323 9.15482 13.6221 8.56505 14.3508 8.56505H17.6441C18.2865 8.56505 18.9022 8.81938 19.3602 9.26531L19.3618 9.26681L23.1229 12.9605C23.588 13.4196 23.8542 14.0482 23.8542 14.7078V17.9004C23.8465 18.624 23.2607 19.2136 22.5309 19.2136H14.3508C13.6221 19.2136 13.0323 18.6238 13.0323 17.8951V9.88354Z" fill="#1E4593"/>
<path d="M7.34112 20.9861C8.5962 20.9861 9.61364 19.9686 9.61364 18.7136C9.61364 17.4585 8.5962 16.4411 7.34112 16.4411C6.08604 16.4411 5.0686 17.4585 5.0686 18.7136C5.0686 19.9686 6.08604 20.9861 7.34112 20.9861Z" fill="white"/>
<path fill-rule="evenodd" clip-rule="evenodd" d="M7.34112 16.9411C6.36219 16.9411 5.5686 17.7346 5.5686 18.7136C5.5686 19.6925 6.36219 20.4861 7.34112 20.4861C8.32005 20.4861 9.11364 19.6925 9.11364 18.7136C9.11364 17.7346 8.32005 16.9411 7.34112 16.9411ZM4.5686 18.7136C4.5686 17.1824 5.8099 15.9411 7.34112 15.9411C8.87234 15.9411 10.1136 17.1824 10.1136 18.7136C10.1136 20.2448 8.87234 21.4861 7.34112 21.4861C5.8099 21.4861 4.5686 20.2448 4.5686 18.7136Z" fill="#1E4593"/>
<path d="M18.8189 20.9861C20.074 20.9861 21.0914 19.9686 21.0914 18.7136C21.0914 17.4585 20.074 16.4411 18.8189 16.4411C17.5638 16.4411 16.5464 17.4585 16.5464 18.7136C16.5464 19.9686 17.5638 20.9861 18.8189 20.9861Z" fill="white"/>
<path fill-rule="evenodd" clip-rule="evenodd" d="M18.8189 16.9411C17.8399 16.9411 17.0464 17.7346 17.0464 18.7136C17.0464 19.6925 17.8399 20.4861 18.8189 20.4861C19.7978 20.4861 20.5914 19.6925 20.5914 18.7136C20.5914 17.7346 19.7978 16.9411 18.8189 16.9411ZM16.0464 18.7136C16.0464 17.1824 17.2876 15.9411 18.8189 15.9411C20.3501 15.9411 21.5914 17.1824 21.5914 18.7136C21.5914 20.2448 20.3501 21.4861 18.8189 21.4861C17.2876 21.4861 16.0464 20.2448 16.0464 18.7136Z" fill="#1E4593"/>
<path d="M5.06838 12.1368C7.31529 12.1368 9.13676 10.3153 9.13676 8.06838C9.13676 5.82148 7.31529 4 5.06838 4C2.82148 4 1 5.82148 1 8.06838C1 10.3153 2.82148 12.1368 5.06838 12.1368Z" fill="white"/>
<path fill-rule="evenodd" clip-rule="evenodd" d="M5.06838 4.5C3.09762 4.5 1.5 6.09762 1.5 8.06838C1.5 10.0391 3.09762 11.6368 5.06838 11.6368C7.03914 11.6368 8.63676 10.0391 8.63676 8.06838C8.63676 6.09762 7.03914 4.5 5.06838 4.5ZM0.5 8.06838C0.5 5.54533 2.54533 3.5 5.06838 3.5C7.59143 3.5 9.63676 5.54533 9.63676 8.06838C9.63676 10.5914 7.59143 12.6368 5.06838 12.6368C2.54533 12.6368 0.5 10.5914 0.5 8.06838Z" fill="#1E4593"/>
<path d="M5.06846 8.7039C5.41945 8.7039 5.70399 8.41936 5.70399 8.06836C5.70399 7.71737 5.41945 7.43283 5.06846 7.43283C4.71746 7.43283 4.43292 7.71737 4.43292 8.06836C4.43292 8.41936 4.71746 8.7039 5.06846 8.7039Z" fill="#1E4593"/>
<path fill-rule="evenodd" clip-rule="evenodd" d="M16.2087 11.5342C16.1097 11.5347 16.0308 11.614 16.0308 11.7131V13.2104C16.0308 13.3098 16.1103 13.3893 16.2097 13.3893H21.4336C21.5301 13.3893 21.6079 13.3098 21.6122 13.2229L21.5981 12.9237L20.2115 11.5571L16.2087 11.5342ZM15.0308 11.7131C15.0308 11.0614 15.558 10.5342 16.2097 10.5342H16.2125L20.6238 10.5594L22.5786 12.486L22.6124 13.2034V13.2152C22.6124 13.8573 22.0852 14.3893 21.4336 14.3893H16.2097C15.558 14.3893 15.0308 13.8621 15.0308 13.2104V11.7131Z" fill="#1E4593"/>
<path d="M5.45838 7.79396H4.67841V5.51181C4.67841 5.3433 4.81322 5.20367 4.98654 5.20367H5.15506C5.32357 5.20367 5.46319 5.33848 5.46319 5.51181V7.79396H5.45838Z" fill="#1E4593"/>
<path d="M4.90472 8.41503H2.24221C2.16036 8.41503 2.09296 8.34763 2.09296 8.26578V8.02505C2.09296 7.9432 2.16036 7.87579 2.24221 7.87579H4.90472V8.41503Z" fill="#1E4593"/>
</svg>
