<svg width="24" height="24" viewBox="0 0 24 24" fill="none" xmlns="http://www.w3.org/2000/svg">
<path d="M5 14H15.13" stroke="#1E4593" stroke-miterlimit="10" stroke-linecap="round"/>
<path fill-rule="evenodd" clip-rule="evenodd" d="M7.6709 20.9861C7.6709 20.71 7.89475 20.4861 8.1709 20.4861H15.7203C15.9964 20.4861 16.2203 20.71 16.2203 20.9861C16.2203 21.2622 15.9964 21.4861 15.7203 21.4861H8.1709C7.89475 21.4861 7.6709 21.2622 7.6709 20.9861Z" fill="#1E4593"/>
<path fill-rule="evenodd" clip-rule="evenodd" d="M19.6539 7.8269H17.2851V6.8269H19.6539C20.5559 6.8269 21.2853 7.5563 21.2853 8.45835V17.4906C21.2853 18.3927 20.5559 19.1221 19.6539 19.1221H4.13145C3.2294 19.1221 2.5 18.3927 2.5 17.4906V8.46316C2.5 7.56111 3.2294 6.83172 4.13145 6.83172H6.59173V7.83172H4.13145C3.78168 7.83172 3.5 8.1134 3.5 8.46316V17.4906C3.5 17.8404 3.78168 18.1221 4.13145 18.1221H19.6539C20.0036 18.1221 20.2853 17.8404 20.2853 17.4906V8.45835C20.2853 8.10858 20.0036 7.8269 19.6539 7.8269Z" fill="#1E4593"/>
<path fill-rule="evenodd" clip-rule="evenodd" d="M20.7853 17.4466H3V16.4466H20.7853V17.4466Z" fill="#1E4593"/>
<path fill-rule="evenodd" clip-rule="evenodd" d="M8.38263 4.5C8.19656 4.5 8.04488 4.65169 8.04488 4.83775V13.4808H15.745V4.83775C15.745 4.65169 15.5933 4.5 15.4072 4.5H8.38263ZM7.04488 4.83775C7.04488 4.0994 7.64428 3.5 8.38263 3.5H15.4072C16.1456 3.5 16.745 4.0994 16.745 4.83775V14.4808H7.04488V4.83775Z" fill="#1E4593"/>
<path d="M10.2748 4H9.09041V13.9808H10.2748V4Z" fill="#1E4593"/>
<path fill-rule="evenodd" clip-rule="evenodd" d="M9.0279 20.7717L9.4564 18.5329L10.4386 18.7209L10.0101 20.9597L9.0279 20.7717Z" fill="#1E4593"/>
<path fill-rule="evenodd" clip-rule="evenodd" d="M13.8956 21.0223L13.467 18.7835L14.4492 18.5955L14.8777 20.8343L13.8956 21.0223Z" fill="#1E4593"/>
</svg>
