<svg width="50" height="50" viewBox="0 0 50 50" fill="none" xmlns="http://www.w3.org/2000/svg">
<path d="M2 41V16.5C2 15.9477 2.44772 15.5 3 15.5H23.297C23.312 15.5 23.3268 15.4976 23.3411 15.4929L42.0826 9.3207C44.3301 8.58052 46.7635 9.73039 47.6188 11.9367C48.413 13.9858 47.5911 16.3077 45.6845 17.4007L27.3766 27.8964C27.285 27.9489 27.2673 28.0738 27.3409 28.1496L33.213 34.2091C33.3938 34.3957 33.4948 34.6453 33.4948 34.905V41C33.4948 41.5523 33.0471 42 32.4948 42H3C2.44772 42 2 41.5523 2 41Z" fill="#788FBE" stroke="#222734"/>
</svg>
