<svg width="50" height="50" viewBox="0 0 50 50" fill="none" xmlns="http://www.w3.org/2000/svg">
<path d="M3 15.3602V20.2457C3 20.6922 3.29598 21.0846 3.72528 21.2072L11.5637 23.4468C12.3584 23.6738 12.5502 24.7123 11.889 25.2083L5.9 29.7C5.64819 29.8889 5.5 30.1852 5.5 30.5V35.323C5.5 35.7319 5.74895 36.0996 6.12861 36.2514L7.52889 36.8116C7.82499 36.93 8.15984 36.9001 8.43028 36.7311L15.7568 32.152C15.9157 32.0527 16.0994 32 16.2868 32H31.369C31.4559 32 31.5426 32.0114 31.6266 32.0338L45.2423 35.6646C45.8772 35.8339 46.5 35.3554 46.5 34.6984V32.5744C46.5 32.2187 46.3111 31.8898 46.0039 31.7106L34.9961 25.2894C34.6889 25.1102 34.5 24.7813 34.5 24.4256V22C34.5 21.4477 34.0523 21 33.5 21H28C27.4477 21 27 20.5523 27 20V17.5C27 16.9477 26.5523 16.5 26 16.5H11.1526C11.0515 16.5 10.9509 16.4847 10.8543 16.4545L4.29827 14.4057C3.65434 14.2045 3 14.6856 3 15.3602Z" fill="#788FBE" stroke="#222734"/>
</svg>
