<svg width="53" height="22" viewBox="0 0 53 22" fill="none" xmlns="http://www.w3.org/2000/svg">
<path d="M27.4103 7.9347C27.3801 10.3029 29.5351 11.6243 31.1584 12.4101C32.8263 13.2162 33.3865 13.7332 33.3799 14.4542C33.3674 15.5574 32.0495 16.0444 30.8162 16.0633C28.6645 16.0964 27.4134 15.4863 26.4188 15.0248L25.6437 18.6275C26.6416 19.0842 28.4894 19.4825 30.4054 19.5C34.9032 19.5 37.8457 17.2947 37.8617 13.8755C37.8793 9.53604 31.8188 9.29585 31.8602 7.35623C31.8745 6.7681 32.4395 6.14048 33.6776 5.9809C34.2904 5.90029 35.982 5.8386 37.9 6.71586L38.6527 3.23024C37.6213 2.8572 36.2957 2.5 34.6452 2.5C30.4119 2.5 27.4343 4.73533 27.4103 7.9347ZM45.886 2.80024C45.0647 2.80024 44.3726 3.27609 44.0637 4.00633L37.6389 19.244H42.1333L43.0277 16.7888H48.5198L49.0387 19.244H53L49.5432 2.80024H45.886ZM46.5147 7.24231L47.8118 13.4171H44.2596L46.5147 7.24231ZM21.961 2.80044L18.4183 19.2438H22.7012L26.2422 2.80003L21.961 2.80044ZM15.6253 2.80003L11.1675 13.9925L9.36423 4.47601C9.15265 3.41367 8.31707 2.80024 7.38915 2.80024H0.102066L0 3.27774C1.49601 3.60018 3.19573 4.12025 4.22551 4.67672C4.85571 5.01665 5.03541 5.3138 5.24245 6.12156L8.65784 19.244H13.1838L20.1226 2.80024L15.6253 2.80003Z" fill="url(#paint0_linear_407_10861)"/>
<defs>
<linearGradient id="paint0_linear_407_10861" x1="24.3662" y1="19.841" x2="24.855" y2="2.38159" gradientUnits="userSpaceOnUse">
<stop stop-color="#222357"/>
<stop offset="1" stop-color="#254AA5"/>
</linearGradient>
</defs>
</svg>
